# xmcd
#
# Track frame offsets:
# 150
# 16875
# 31255
# 44490
# 56430
# 70662
# 88662
# 103400
# 121410
# 135920
# 147005
# 163072
#
# Disc length: 2349 seconds
#
#
# Revision: 5
# Processed by: cddbd v1.5.1PL0 Copyright (c) Steve Scherf et al.
# Submitted via: FreeRIP 2.60 
#
DISCID=9d092b0c
DTITLE=Various Artist - The Ultimate R&B Christmas
DYEAR=1993
DGENRE=Christmas
TTITLE0=Lou Rawls - Have Yourself a Merry Little Christmas
TTITLE1=Nat King Cole - The Christmas Song
TTITLE2=Charles Brown - Merry Christmas, Baby
TTITLE3=Booker T. and the MG's - Jingle Bells
TTITLE4=Otis Redding - White Christmas
TTITLE5=Gladys Knight and the Pips - Do You Hear What I Hear
TTITLE6=Al Green - I'll Be Home for Christmas
TTITLE7=Freddie Jackson - Christmas Forever
TTITLE8=James Brown - It's Christmas Time (Part 1)
TTITLE9=Jackson 5 - Santa Claus is Coming to Town
TTITLE10=Donny Hathaway - This Christmas
TTITLE11=Amos Milburn - Let's Make Christmas Merry, Baby
EXTD=LABEL =Right Stuff\nID =0777-7-66717-2-7\nUPC =0777-7-66717-2-7\nCOPYRIGHT =1993
EXTT0=Lou Rawls
EXTT1=Nat King Cole
EXTT2=Charles Brown
EXTT3=Booker T. and the MG's
EXTT4=Otis Redding
EXTT5=Gladys Knight
EXTT6=Al Green
EXTT7=Freddie Jackson
EXTT8=James Brown
EXTT9=Jackson 5
EXTT10=Donny Hathaway
EXTT11=Amos Milburn
PLAYORDER=
